<svg xmlns="http://www.w3.org/2000/svg" viewBox="0 0 25.139 40.619"><defs><style>.a{fill:#686565;}</style></defs><path class="a" d="M23.841,14.824h5.881V12.617H23.841Zm5.838.734H23.841s-9.606,9.468-9.606,18.75c0,9.836,10.064,10.617,10.064,10.617a14.681,14.681,0,0,0,4.869,0s10.205-1.2,10.205-10.57S29.679,15.558,29.679,15.558Zm.432,19.929a3.44,3.44,0,0,1-.962,1.2,4.186,4.186,0,0,1-1.418.723c-.069.021-.144.029-.214.046v1.632h-1.47V37.647c-.018,0-.036,0-.053,0a6.273,6.273,0,0,1-1.163-.1,7.052,7.052,0,0,1-.948-.245,4.129,4.129,0,0,1-.687-.3,1.936,1.936,0,0,1-.4-.278.7.7,0,0,1-.174-.35,3.335,3.335,0,0,1-.051-.659c0-.193.006-.354.019-.486a1.346,1.346,0,0,1,.061-.318.357.357,0,0,1,.111-.174.28.28,0,0,1,.163-.051.769.769,0,0,1,.369.154,6.358,6.358,0,0,0,.612.341,5.6,5.6,0,0,0,.892.342,4.279,4.279,0,0,0,1.2.154,2.76,2.76,0,0,0,.8-.108,1.793,1.793,0,0,0,.6-.3,1.273,1.273,0,0,0,.378-.486,1.538,1.538,0,0,0,.132-.647,1.147,1.147,0,0,0-.224-.706,2.266,2.266,0,0,0-.584-.523,6.121,6.121,0,0,0-.816-.429q-.458-.2-.943-.424a8.346,8.346,0,0,1-.943-.51,3.794,3.794,0,0,1-.818-.68A3.267,3.267,0,0,1,23,29.926a3.378,3.378,0,0,1-.222-1.3A3.439,3.439,0,0,1,23.1,27.1a3.152,3.152,0,0,1,.868-1.092,3.722,3.722,0,0,1,1.289-.649,5.326,5.326,0,0,1,.786-.162V23.652h1.47V25.2c.06.007.118,0,.176.014a5.868,5.868,0,0,1,.8.176,4.477,4.477,0,0,1,.663.25,1.491,1.491,0,0,1,.383.232.679.679,0,0,1,.128.157.937.937,0,0,1,.055.174,1.6,1.6,0,0,1,.031.272c.006.108.009.244.009.405,0,.181-.006.335-.015.46a1.609,1.609,0,0,1-.046.308.359.359,0,0,1-.092.178.225.225,0,0,1-.163.055.781.781,0,0,1-.328-.128c-.15-.089-.333-.181-.549-.282a5.591,5.591,0,0,0-.757-.28,3.374,3.374,0,0,0-.943-.124,2.225,2.225,0,0,0-.7.1,1.47,1.47,0,0,0-.5.269,1.066,1.066,0,0,0-.3.414,1.343,1.343,0,0,0-.1.511,1.139,1.139,0,0,0,.218.7,2.073,2.073,0,0,0,.589.523,6.02,6.02,0,0,0,.837.429q.466.2.952.424a9.611,9.611,0,0,1,.952.51,3.786,3.786,0,0,1,.832.682,3.216,3.216,0,0,1,.588.933,3.263,3.263,0,0,1,.224,1.266,3.758,3.758,0,0,1-.357,1.667Zm-.478-23.605,2.987-7.354s-1.884,1.564-2.987,1.564-2.851-1.517-2.851-1.517S24.9,6.092,23.794,6.092,20.9,4.62,20.9,4.62l3.033,7.261h5.7Z" transform="translate(-14.235 -4.528)"/></svg>